<svg width="16" height="16" viewBox="0 0 16 17" fill="none" xmlns="http://www.w3.org/2000/svg">
<path d="M8.00004 9.94667C6.58004 9.94667 5.42004 8.79333 5.42004 7.36667C5.42004 5.94 6.58004 4.79333 8.00004 4.79333C9.42004 4.79333 10.58 5.94667 10.58 7.37334C10.58 8.8 9.42004 9.94667 8.00004 9.94667ZM8.00004 5.79333C7.13338 5.79333 6.42004 6.5 6.42004 7.37334C6.42004 8.24667 7.12671 8.95333 8.00004 8.95333C8.87338 8.95333 9.58004 8.24667 9.58004 7.37334C9.58004 6.5 8.86671 5.79333 8.00004 5.79333Z" fill="#353535"/>
<path d="M8 15.6733C7.01333 15.6733 6.01999 15.3 5.24666 14.56C3.28 12.6666 1.10666 9.64665 1.92666 6.05331C2.66666 2.79331 5.51333 1.33331 8 1.33331C8 1.33331 8 1.33331 8.00666 1.33331C10.4933 1.33331 13.34 2.79331 14.08 6.05998C14.8933 9.65331 12.72 12.6666 10.7533 14.56C9.97999 15.3 8.98666 15.6733 8 15.6733ZM8 2.33331C6.06 2.33331 3.56666 3.36665 2.90666 6.27331C2.18666 9.41331 4.16 12.12 5.94666 13.8333C7.1 14.9466 8.90666 14.9466 10.06 13.8333C11.84 12.12 13.8133 9.41331 13.1067 6.27331C12.44 3.36665 9.93999 2.33331 8 2.33331Z" fill="#353535"/>
</svg>
